inDegrees=yes
name=ik_OwnShooting_orientations2.mot
DataType=double
version=3
OpenSimVersion=4.3-2021-08-27-4bc7ad9
endheader
time	pelvis_tilt	pelvis_list	pelvis_rotation	pelvis_tx	pelvis_ty	pelvis_tz	hip_flexion_r	hip_adduction_r	hip_rotation_r	knee_angle_r	knee_angle_r_beta	ankle_angle_r	subtalar_angle_r	mtp_angle_r	hip_flexion_l	hip_adduction_l	hip_rotation_l	knee_angle_l	knee_angle_l_beta	ankle_angle_l	subtalar_angle_l	mtp_angle_l	lumbar_extension	lumbar_bending	lumbar_rotation	arm_flex_r	arm_add_r	arm_rot_r	elbow_flex_r	pro_sup_r	wrist_flex_r	wrist_dev_r	arm_flex_l	arm_add_l	arm_rot_l	elbow_flex_l	pro_sup_l	wrist_flex_l	wrist_dev_l
10.92	6.403484574318058	6.294149397649528	62.53625422043491	0	0.9399999999999999	0	45.00000011886165	-9.999999988573334	0	60.00014061962234	1.047200005472	-4.999999851047217	0	0	45.00000011886165	-9.999999988573334	0	60.00014061962234	1.047200005472	-4.999999851047217	0	0	-5.359292873389117	0.9952151447434762	-0.4550628624806993	89.87745513849727	-15.95566526894708	-33.10709598409974	64.8876780297922	45.00000025534055	0	0	0	-14.99999998963556	0	75.0001758461476	45.00000025534055	0	0
10.93	6.396364992144642	6.286851614685275	62.54072680994823	0	0.9399999999999999	0	45.00000011886165	-9.999999988573334	0	60.00014061962234	1.047200005472	-4.999999851047217	0	0	45.00000011886165	-9.999999988573334	0	60.00014061962234	1.047200005472	-4.999999851047217	0	0	-4.427686516818023	1.409115305654835	-0.5042865364226095	89.93715546228502	4.04007850491679	-31.76896708339616	65.31202299220269	45.00000025534055	0	0	0	-14.99999998963548	0	75.0001758461476	45.00000025534055	0	0
10.94	6.405291080360065	6.268567412376973	62.53044713876222	0	0.9399999999999999	0	45.00000011886165	-9.999999988573334	0	60.00014061962234	1.047200005472	-4.999999851047217	0	0	45.00000011886165	-9.999999988573334	0	60.00014061962234	1.047200005472	-4.999999851047217	0	0	-4.707272535960945	0.9720379151176026	-0.4660539803334886	89.92663303797363	-11.86661695320192	-43.19086873570748	98.44182030838682	45.00000025534055	0	0	0	-14.99999998963544	0	75.0001758461476	45.00000025534055	0	0
10.95	6.382561428613196	6.250159952404482	62.54350731933955	0	0.9399999999999999	0	45.00000011886165	-9.999999988573334	0	60.00014061962234	1.047200005472	-4.999999851047217	0	0	45.00000011886165	-9.999999988573334	0	60.00014061962234	1.047200005472	-4.999999851047217	0	0	-6.281829121376536	1.304390799130815	-0.4787793432916919	83.63069523241417	-35.60156731246052	-75.23569660168143	126.4388240060422	45.00000025534055	0	0	0	-14.99999998963533	0	75.0001758461476	45.00000025534055	0	0
10.96	6.372298386044267	6.242873361481792	62.53975568979874	0	0.9399999999999999	0	45.00000011886165	-9.999999988573334	0	60.00014061962234	1.047200005472	-4.999999851047217	0	0	45.00000011886165	-9.999999988573334	0	60.00014061962234	1.047200005472	-4.999999851047217	0	0	-4.981914042649774	0.7189390092685967	-0.4930448325290996	89.90911375210655	-24.39095401957758	-81.94829251752925	149.9316959984006	45.00000025534055	0	0	0	-14.99999998963533	0	75.0001758461476	45.00000025534055	0	0
10.97	6.365738762298393	6.235312549117425	62.52925815125663	0	0.9399999999999999	0	45.00000011886165	-9.999999988573334	0	60.00014061962234	1.047200005472	-4.999999851047217	0	0	45.00000011886165	-9.999999988573334	0	60.00014061962234	1.047200005472	-4.999999851047217	0	0	2.837431973856928	0.8352130006791455	-0.6203849138349071	89.98692425611418	-24.01516639353192	-89.96454389149841	149.9878493412901	45.00000025534055	0	0	0	-14.9999999896353	0	75.0001758461476	45.00000025534055	0	0
10.98	6.361487318449052	6.225182210704288	62.5239990068401	0	0.9399999999999999	0	45.00000011886165	-9.999999988573334	0	60.00014061962234	1.047200005472	-4.999999851047217	0	0	45.00000011886165	-9.999999988573334	0	60.00014061962234	1.047200005472	-4.999999851047217	0	0	25.49436210898034	-8.65923836908426	1.66115718080297	89.99622946634791	-56.40268700004632	-89.99426345581121	149.9981656350088	45.00000025534055	0	0	0	-14.99999998963519	0	75.0001758461476	45.00000025534055	0	0
10.99	6.356279171661184	6.215331406697627	62.51609650822486	0	0.9399999999999999	0	45.00000011886165	-9.999999988573334	0	60.00014061962234	1.047200005472	-4.999999851047217	0	0	45.00000011886165	-9.999999988573334	0	60.00014061962234	1.047200005472	-4.999999851047217	0	0	1.373285395867282	-42.09683004465423	-2.547800226327105	89.98591844833663	-119.9748050335738	-89.99586955163957	149.9992886994634	45.00000025534055	0	0	0	-14.99999998963498	0	75.0001758461476	45.00000025534055	0	0
11	6.351467921467758	6.207518947804876	62.50645559107246	0	0.9399999999999999	0	45.00000011886165	-9.999999988573334	0	60.00014061962234	1.047200005472	-4.999999851047217	0	0	45.00000011886165	-9.999999988573334	0	60.00014061962234	1.047200005472	-4.999999851047217	0	0	-11.81887841555697	-47.51811783397509	-15.54419430280508	89.92450680062973	-119.9900473300115	-89.99539216684377	149.9994072693145	45.00000025534055	0	0	0	-14.99999998963494	0	75.0001758461476	45.00000025534055	0	0
11.01	6.350138614794925	6.209570377790998	62.50538047106711	0	0.9399999999999999	0	45.00000011886165	-9.999999988573334	0	60.00014061962234	1.047200005472	-4.999999851047217	0	0	45.00000011886165	-9.999999988573334	0	60.00014061962234	1.047200005472	-4.999999851047217	0	0	23.60217551204365	-43.62299554733485	11.46674470197599	89.9950675248454	-100.1783304999632	-89.99627093369662	149.9991849030521	45.00000025534055	0	0	0	-14.99999998963472	0	75.0001758461476	45.00000025534055	0	0
